:SAMPLES-PER-SECOND 30
:FULLY-SPECIFIED
:DEGREES
102
root  -36.3448 38.3909 -7.01664 132.502 -89.9464 -137.189
RightUpLeg  -4.02464 -10.3926 -1.42848
RightLeg  39.0123 -9.72629 -8.62147
RightFoot  -24.749 0.22763 3.36891
RightToes  0.000482159 0.542163 -0.142577
Spine  35.2153 3.37046 14.2193
Spine1  -1.88851 8.40981 -3.68804
HEad  -25.9303 -8.93815 -7.28925
LeftShoulder1  6.36762 -10.0022 -40.8379
LeftArm  -18.3427 24.615 -9.83618
LeftForeArm  29.2843 -21.76 -3.06928
LeftHand  -0.25398 0.0180481 5.50724
RightShoulder  6.03484 11.2032 35.0774
RightArm  -6.66018 17.442 15.5819
RightForeArm  5.84835 59.2642 18.7976
RightHand  -1.46858 1.87403 -23.4097
LeftUpLeg  -56.3348 8.54425 -5.73138
LeftLeg  57.6099 2.81607 5.46919
LeftFoot  -9.44907 0.101571 -2.56502
LeftToes  1.06247e-005 4.65854e-005 -8.18502e-006
103
root  -39.0315 38.6301 -6.9659 166.977 -87.3787 -170.829
RightUpLeg  1.89796 -9.12481 -1.34371
RightLeg  33.783 -9.32683 -6.91169
RightFoot  -24.704 0.295202 3.94877
RightToes  0.000482159 0.542163 -0.142577
Spine  30.9902 4.26512 15.3362
Spine1  0.346065 9.60357 -6.60838
HEad  -24.3066 -9.26887 -5.49922
LeftShoulder1  5.64614 -8.88129 -39.3485
LeftArm  -19.9847 30.3771 -7.57314
LeftForeArm  25.2723 -18.7849 -2.26107
LeftHand  -0.25398 0.0180481 5.50724
RightShoulder  6.22525 10.7368 37.6771
RightArm  -1.71183 13.4505 18.3292
RightForeArm  4.29186 55.1274 15.9632
RightHand  -1.37254 1.87685 -21.911
LeftUpLeg  -52.2484 10.1427 -5.18412
LeftLeg  39.8313 1.93663 2.11295
LeftFoot  -9.08508 0.144221 -4.59703
LeftToes  1.06247e-005 4.65854e-005 -8.18502e-006
104
root  -41.9516 38.5361 -6.87676 155.414 -84.2945 -159.413
RightUpLeg  8.74279 -8.26788 -1.81455
RightLeg  29.4782 -7.25751 -4.66812
RightFoot  -24.2718 0.455205 5.45063
RightToes  0.000482159 0.542163 -0.142577
Spine  25.8199 5.54585 16.7097
Spine1  3.79371 11.1023 -8.52525
HEad  -21.9766 -9.30479 -3.73426
LeftShoulder1  4.7292 -7.52381 -36.7144
LeftArm  -20.9858 36.5014 -7.14317
LeftForeArm  25.1597 -18.9381 -1.96891
LeftHand  -0.25398 0.0180481 5.50724
RightShoulder  6.44229 10.624 39.488
RightArm  2.95258 8.2265 20.9664
RightForeArm  3.61968 48.9407 12.679
RightHand  -1.25655 1.77035 -20.4128
LeftUpLeg  -45.4881 11.8223 -3.20783
LeftLeg  25.828 1.21687 0.905163
LeftFoot  -9.38279 0.154792 -5.61776
LeftToes  1.06247e-005 4.65854e-005 -8.18502e-006
105
root  -44.9284 38.1807 -6.76683 156.121 -80.7361 -160.217
RightUpLeg  14.3976 -7.34051 -3.47767
RightLeg  27.3094 -3.36836 -2.1023
RightFoot  -23.4536 0.831665 9.37066
RightToes  0.000482159 0.542163 -0.142577
Spine  19.9601 7.19637 16.9915
Spine1  7.30441 12.6019 -9.31189
HEad  -18.6726 -8.89595 -2.43874
LeftShoulder1  3.62941 -5.7258 -33.1931
LeftArm  -21.8484 43.3339 -8.26596
LeftForeArm  27.1575 -20.2169 -2.27115
LeftHand  -0.25398 0.0180481 5.50724
RightShoulder  6.45328 10.5238 39.872
RightArm  8.57528 2.11271 24.625
RightForeArm  0.443941 40.5353 9.55287
RightHand  -1.23348 1.92357 -19.6432
LeftUpLeg  -38.6729 12.8973 -0.584907
LeftLeg  18.887 3.21602 1.56064
LeftFoot  -8.65381 0.165954 -4.83806
LeftToes  1.06247e-005 4.65854e-005 -8.18502e-006
106
root  -47.8247 37.6906 -6.64168 159.429 -77.2629 -163.112
RightUpLeg  16.5994 -6.42791 -6.41277
RightLeg  29.75 1.02948 0.455212
RightFoot  -20.1493 0.917283 13.8063
RightToes  0.000482159 0.542163 -0.142577
Spine  14.8501 8.36921 15.9372
Spine1  9.0294 13.2912 -9.84715
HEad  -15.9689 -7.55673 -1.19297
LeftShoulder1  2.69516 -3.84909 -30.5468
LeftArm  -23.0543 49.6545 -10.4881
LeftForeArm  25.6336 -20.4145 -2.2914
LeftHand  -0.25398 0.0180481 5.50724
RightShoulder  6.28607 10.128 39.9788
RightArm  13.9207 -3.98745 28.5963
RightForeArm  -2.5933 32.0104 7.16756
RightHand  -1.2653 2.19846 -19.4379
LeftUpLeg  -34.5949 14.1597 0.989182
LeftLeg  19.1941 5.82593 2.59289
LeftFoot  -3.30991 0.122421 -1.86575
LeftToes  1.06247e-005 4.65854e-005 -8.18502e-006
107
root  -50.4135 37.2147 -6.5347 163.287 -75.8795 -167.083
RightUpLeg  15.1346 -6.19214 -10.178
RightLeg  38.3673 2.60447 1.88726
RightFoot  -12.251 0.0690452 14.4304
RightToes  0.000482159 0.542163 -0.142577
Spine  12.6262 7.8008 12.9275
Spine1  8.20864 11.9236 -9.70073
HEad  -15.8528 -5.13257 0.117943
LeftShoulder1  2.25985 -2.61896 -30.7523
LeftArm  -24.7052 52.6776 -14.5683
LeftForeArm  20.6226 -18.673 -1.34111
LeftHand  -0.25398 0.0180481 5.50724
RightShoulder  6.19952 9.70717 40.7454
RightArm  16.0375 -9.06714 31.2003
RightForeArm  -2.2758 25.086 5.56808
RightHand  -1.37507 2.73314 -19.7482
LeftUpLeg  -33.7334 15.578 0.163722
LeftLeg  24.2299 5.61806 3.06892
LeftFoot  4.48266 -0.464017 3.13117
LeftToes  1.06247e-005 4.65854e-005 -8.18502e-006
108
root  -52.4449 36.8177 -6.48207 169.229 -77.6146 -174.231
RightUpLeg  10.683 -6.29143 -13.5595
RightLeg  52.0983 0.725607 0.486369
RightFoot  -2.798 -0.819612 10.7421
RightToes  0.000482159 0.542163 -0.142577
Spine  14.0825 5.5987 7.53099
Spine1  6.41845 8.5967 -7.84543
HEad  -18.713 -2.72846 0.798996
LeftShoulder1  2.50475 -2.75028 -33.7609
LeftArm  -25.6232 50.2758 -20.5671
LeftForeArm  17.5958 -15.8993 0.0774425
LeftHand  -0.25398 0.0180481 5.50724
RightShoulder  6.26044 9.56746 41.6528
RightArm  12.1461 -12.7688 31.7758
RightForeArm  0.208334 19.9635 5.40804
RightHand  -1.47695 3.17759 -20.1225
LeftUpLeg  -34.3596 14.9302 -2.44347
LeftLeg  31.4294 4.47373 3.3149
LeftFoot  7.01407 -1.27654 7.78082
LeftToes  1.06247e-005 4.65854e-005 -8.18502e-006
109
root  -53.8777 36.5729 -6.47703 178.559 -80.0204 175.203
RightUpLeg  3.05244 -5.71486 -15.1807
RightLeg  68.0017 -0.926142 -3.31752
RightFoot  2.12572 -0.841 7.11012
RightToes  0.000482159 0.542163 -0.142577
Spine  17.388 3.58635 1.74765
Spine1  5.52679 5.28595 -5.36213
HEad  -22.7108 -1.65579 1.24029
LeftShoulder1  3.37521 -4.22579 -37.3935
LeftArm  -25.7636 43.1021 -25.8394
LeftForeArm  20.2665 -14.4223 0.135377
LeftHand  -0.25398 0.0180481 5.50724
RightShoulder  6.30339 9.57776 41.9252
RightArm  3.37323 -15.0727 31.1457
RightForeArm  1.90903 15.5578 6.76733
RightHand  -1.4785 3.14917 -20.2059
LeftUpLeg  -34.3608 12.963 -5.03886
LeftLeg  37.5276 4.62463 4.17935
LeftFoot  2.70536 -1.18219 9.34145
LeftToes  1.06247e-005 4.65854e-005 -8.18502e-006
110
root  -54.9818 36.6469 -6.49102 -175.316 -80.7739 168.784
RightUpLeg  -7.35304 -4.55862 -14.3473
RightLeg  81.7645 -0.532758 -7.05473
RightFoot  1.89129 -0.596019 5.22045
RightToes  0.000482159 0.542163 -0.142577
Spine  20.0223 2.55853 -1.96973
Spine1  5.39836 3.19504 -3.57186
HEad  -25.6884 -2.09852 2.54043
LeftShoulder1  4.37944 -6.0232 -39.6857
LeftArm  -25.9003 34.0995 -29.3877
LeftForeArm  25.8377 -17.3744 -1.57372
LeftHand  -0.25398 0.0180481 5.50724
RightShoulder  6.27966 9.60539 41.6614
RightArm  -3.55221 -16.0362 30.3923
RightForeArm  1.37777 11.0997 7.58329
RightHand  -1.51466 3.2216 -20.5127
LeftUpLeg  -32.9248 12.2764 -5.99566
LeftLeg  39.7872 4.84216 4.69194
LeftFoot  -2.09083 -0.63961 8.0607
LeftToes  1.06247e-005 4.65854e-005 -8.18502e-006
111
root  -55.9947 37.0737 -6.51387 -175.298 -80.834 169.176
RightUpLeg  -18.1325 -4.15225 -12.164
RightLeg  89.3686 0.496884 -9.34072
RightFoot  0.0358513 -0.430764 4.33505
RightToes  0.000482159 0.542163 -0.142577
Spine  21.538 1.88581 -4.20423
Spine1  5.14397 1.62148 -1.67398
HEad  -27.2691 -3.29319 4.66733
LeftShoulder1  5.07667 -7.31874 -40.5816
LeftArm  -24.673 26.0173 -31.3927
LeftForeArm  32.8238 -27.1644 -4.19218
LeftHand  -0.25398 0.0180481 5.50724
RightShoulder  6.23729 9.67972 41.1076
RightArm  -6.71698 -16.2694 29.9551
RightForeArm  2.14747 7.59694 7.41915
RightHand  -1.66552 3.78753 -21.1655
LeftUpLeg  -30.6817 13.072 -5.83659
LeftLeg  38.6118 4.15458 3.944
LeftFoot  -3.19845 -0.481871 7.05114
LeftToes  1.06247e-005 4.65854e-005 -8.18502e-006
112
root  -56.9251 37.7153 -6.53618 -174.661 -81.5986 169.028
RightUpLeg  -27.2697 -5.02777 -10.0163
RightLeg  90.3029 0.729054 -10.9742
RightFoot  -1.02833 -0.343186 3.72409
RightToes  0.000482159 0.542163 -0.142577
Spine  22.9559 1.07353 -6.0319
Spine1  4.5576 -0.161394 0.634073
HEad  -28.5755 -4.67452 6.47525
LeftShoulder1  5.49693 -8.10242 -41.0137
LeftArm  -22.21 19.607 -31.2957
LeftForeArm  43.3265 -42.7764 -7.61079
LeftHand  -0.25398 0.0180481 5.50724
RightShoulder  6.13739 9.74425 40.1778
RightArm  -7.36983 -16.9763 30.0245
RightForeArm  3.1304 6.85959 7.03542
RightHand  -1.769 4.21935 -21.4759
LeftUpLeg  -28.0872 13.7866 -5.87347
LeftLeg  35.7297 3.11244 2.77397
LeftFoot  -2.56061 -0.543414 7.27095
LeftToes  1.06247e-005 4.65854e-005 -8.18502e-006
113
root  -57.807 38.3963 -6.53666 -174.852 -82.5949 169.608
RightUpLeg  -34.4528 -5.92559 -7.67401
RightLeg  86.1983 -0.124282 -12.34
RightFoot  -1.56163 -0.218485 2.41838
RightToes  0.000482159 0.542163 -0.142577
Spine  24.4061 0.201401 -6.39134
Spine1  3.8867 -1.60979 2.1094
HEad  -30.3315 -5.99372 7.4689
LeftShoulder1  5.67705 -8.50728 -40.9319
LeftArm  -20.8939 14.0651 -29.8866
LeftForeArm  55.1819 -59.0035 -13.8636
LeftHand  -0.25398 0.0180481 5.50724
RightShoulder  5.9621 9.69403 39.0841
RightArm  -7.11522 -18.437 30.3113
RightForeArm  2.20409 8.59626 7.14795
RightHand  -1.70835 4.12539 -20.9562
LeftUpLeg  -25.0526 13.8653 -5.68956
LeftLeg  32.3608 2.44806 2.02502
LeftFoot  -2.81038 -0.519604 7.17772
LeftToes  1.06247e-005 4.65854e-005 -8.18502e-006
114
root  -58.75 39.065 -6.53159 -179.269 -82.7274 174.569
RightUpLeg  -39.356 -5.62123 -4.95513
RightLeg  77.5758 -1.85444 -11.6074
RightFoot  -2.43044 -0.176351 2.09021
RightToes  0.000482159 0.542163 -0.142577
Spine  25.3033 -0.422546 -5.07565
Spine1  3.00294 -2.07014 2.0689
HEad  -31.7567 -7.15443 8.1136
LeftShoulder1  5.46584 -8.49733 -39.2939
LeftArm  -20.7211 9.44543 -29.6462
LeftForeArm  64.6414 -71.1351 -25.2464
LeftHand  -0.25398 0.0180481 5.50724
RightShoulder  5.85041 9.65773 38.392
RightArm  -5.20419 -20.1599 30.3037
RightForeArm  -0.233033 10.9693 7.38385
RightHand  -1.64486 4.04092 -20.3813
LeftUpLeg  -21.6546 14.109 -4.77891
LeftLeg  28.4771 2.04123 1.54567
LeftFoot  -3.12 -0.444053 6.44044
LeftToes  1.06247e-005 4.65854e-005 -8.18502e-006
